<mxfile host="app.diagrams.net" modified="2023-05-17T06:25:30.974Z" agent="Mozilla/5.0 (Macintosh; Intel Mac OS X 10_15_7) AppleWebKit/537.36 (KHTML, like Gecko) Chrome/113.0.0.0 Safari/537.36" etag="JNr-B0tNJwo7Hj7g1Ka6" version="21.3.2" type="github">
  <diagram id="C5RBs43oDa-KdzZeNtuy" name="Page-1">
    <mxGraphModel dx="1183" dy="788" grid="1" gridSize="10" guides="1" tooltips="1" connect="1" arrows="1" fold="1" page="1" pageScale="1" pageWidth="827" pageHeight="1169" math="0" shadow="0">
      <root>
        <mxCell id="WIyWlLk6GJQsqaUBKTNV-0" />
        <mxCell id="WIyWlLk6GJQsqaUBKTNV-1" parent="WIyWlLk6GJQsqaUBKTNV-0" />
        <mxCell id="WIyWlLk6GJQsqaUBKTNV-4" value="Yes" style="rounded=0;html=1;jettySize=auto;orthogonalLoop=1;fontSize=11;endArrow=block;endFill=0;endSize=8;strokeWidth=1;shadow=0;labelBackgroundColor=none;edgeStyle=orthogonalEdgeStyle;entryX=0.5;entryY=0;entryDx=0;entryDy=0;" parent="WIyWlLk6GJQsqaUBKTNV-1" source="WIyWlLk6GJQsqaUBKTNV-6" target="jHsHHIUab3S1Bw9RC4OD-5" edge="1">
          <mxGeometry y="20" relative="1" as="geometry">
            <mxPoint as="offset" />
            <mxPoint x="260" y="444" as="targetPoint" />
          </mxGeometry>
        </mxCell>
        <mxCell id="WIyWlLk6GJQsqaUBKTNV-5" value="No" style="edgeStyle=orthogonalEdgeStyle;rounded=0;html=1;jettySize=auto;orthogonalLoop=1;fontSize=11;endArrow=block;endFill=0;endSize=8;strokeWidth=1;shadow=0;labelBackgroundColor=none;" parent="WIyWlLk6GJQsqaUBKTNV-1" source="WIyWlLk6GJQsqaUBKTNV-6" target="WIyWlLk6GJQsqaUBKTNV-7" edge="1">
          <mxGeometry y="10" relative="1" as="geometry">
            <mxPoint as="offset" />
          </mxGeometry>
        </mxCell>
        <mxCell id="WIyWlLk6GJQsqaUBKTNV-6" value="是否需要刷新bill" style="rhombus;whiteSpace=wrap;html=1;shadow=0;fontFamily=Helvetica;fontSize=12;align=center;strokeWidth=1;spacing=6;spacingTop=-4;" parent="WIyWlLk6GJQsqaUBKTNV-1" vertex="1">
          <mxGeometry x="520" y="344" width="100" height="80" as="geometry" />
        </mxCell>
        <mxCell id="jHsHHIUab3S1Bw9RC4OD-124" value="" style="edgeStyle=orthogonalEdgeStyle;rounded=0;orthogonalLoop=1;jettySize=auto;html=1;" edge="1" parent="WIyWlLk6GJQsqaUBKTNV-1" source="WIyWlLk6GJQsqaUBKTNV-7" target="jHsHHIUab3S1Bw9RC4OD-123">
          <mxGeometry relative="1" as="geometry" />
        </mxCell>
        <mxCell id="WIyWlLk6GJQsqaUBKTNV-7" value="发起会员支付" style="rounded=1;whiteSpace=wrap;html=1;fontSize=12;glass=0;strokeWidth=1;shadow=0;" parent="WIyWlLk6GJQsqaUBKTNV-1" vertex="1">
          <mxGeometry x="330" y="904" width="120" height="40" as="geometry" />
        </mxCell>
        <mxCell id="jHsHHIUab3S1Bw9RC4OD-110" style="edgeStyle=orthogonalEdgeStyle;rounded=0;orthogonalLoop=1;jettySize=auto;html=1;exitX=0.5;exitY=1;exitDx=0;exitDy=0;" edge="1" parent="WIyWlLk6GJQsqaUBKTNV-1" source="jHsHHIUab3S1Bw9RC4OD-5" target="jHsHHIUab3S1Bw9RC4OD-7">
          <mxGeometry relative="1" as="geometry" />
        </mxCell>
        <mxCell id="jHsHHIUab3S1Bw9RC4OD-5" value="刷新bill" style="whiteSpace=wrap;html=1;shadow=0;strokeWidth=1;spacing=6;spacingTop=-4;" vertex="1" parent="WIyWlLk6GJQsqaUBKTNV-1">
          <mxGeometry x="510" y="484" width="120" height="60" as="geometry" />
        </mxCell>
        <mxCell id="jHsHHIUab3S1Bw9RC4OD-10" value="" style="edgeStyle=orthogonalEdgeStyle;rounded=0;orthogonalLoop=1;jettySize=auto;html=1;" edge="1" parent="WIyWlLk6GJQsqaUBKTNV-1" source="jHsHHIUab3S1Bw9RC4OD-7" target="jHsHHIUab3S1Bw9RC4OD-9">
          <mxGeometry relative="1" as="geometry" />
        </mxCell>
        <mxCell id="jHsHHIUab3S1Bw9RC4OD-11" value="yes" style="edgeLabel;html=1;align=center;verticalAlign=middle;resizable=0;points=[];" vertex="1" connectable="0" parent="jHsHHIUab3S1Bw9RC4OD-10">
          <mxGeometry x="0.1" relative="1" as="geometry">
            <mxPoint as="offset" />
          </mxGeometry>
        </mxCell>
        <mxCell id="jHsHHIUab3S1Bw9RC4OD-30" value="" style="edgeStyle=orthogonalEdgeStyle;rounded=0;orthogonalLoop=1;jettySize=auto;html=1;entryX=1;entryY=0.5;entryDx=0;entryDy=0;" edge="1" parent="WIyWlLk6GJQsqaUBKTNV-1" source="jHsHHIUab3S1Bw9RC4OD-98" target="WIyWlLk6GJQsqaUBKTNV-7">
          <mxGeometry relative="1" as="geometry">
            <mxPoint x="570" y="1024" as="targetPoint" />
          </mxGeometry>
        </mxCell>
        <mxCell id="jHsHHIUab3S1Bw9RC4OD-114" value="no" style="edgeLabel;html=1;align=center;verticalAlign=middle;resizable=0;points=[];" vertex="1" connectable="0" parent="jHsHHIUab3S1Bw9RC4OD-30">
          <mxGeometry x="-0.0762" y="-1" relative="1" as="geometry">
            <mxPoint as="offset" />
          </mxGeometry>
        </mxCell>
        <mxCell id="jHsHHIUab3S1Bw9RC4OD-112" style="edgeStyle=orthogonalEdgeStyle;rounded=0;orthogonalLoop=1;jettySize=auto;html=1;exitX=0.5;exitY=1;exitDx=0;exitDy=0;entryX=0.5;entryY=0;entryDx=0;entryDy=0;" edge="1" parent="WIyWlLk6GJQsqaUBKTNV-1" source="jHsHHIUab3S1Bw9RC4OD-7" target="jHsHHIUab3S1Bw9RC4OD-111">
          <mxGeometry relative="1" as="geometry" />
        </mxCell>
        <mxCell id="jHsHHIUab3S1Bw9RC4OD-115" value="no" style="edgeLabel;html=1;align=center;verticalAlign=middle;resizable=0;points=[];" vertex="1" connectable="0" parent="jHsHHIUab3S1Bw9RC4OD-112">
          <mxGeometry x="-0.0296" y="1" relative="1" as="geometry">
            <mxPoint as="offset" />
          </mxGeometry>
        </mxCell>
        <mxCell id="jHsHHIUab3S1Bw9RC4OD-7" value="是否网络报错" style="rhombus;whiteSpace=wrap;html=1;shadow=0;strokeWidth=1;spacing=6;spacingTop=-4;" vertex="1" parent="WIyWlLk6GJQsqaUBKTNV-1">
          <mxGeometry x="530" y="614" width="80" height="80" as="geometry" />
        </mxCell>
        <mxCell id="jHsHHIUab3S1Bw9RC4OD-116" style="edgeStyle=orthogonalEdgeStyle;rounded=0;orthogonalLoop=1;jettySize=auto;html=1;exitX=1;exitY=0.5;exitDx=0;exitDy=0;entryX=1;entryY=0.5;entryDx=0;entryDy=0;" edge="1" parent="WIyWlLk6GJQsqaUBKTNV-1" source="jHsHHIUab3S1Bw9RC4OD-9" target="jHsHHIUab3S1Bw9RC4OD-106">
          <mxGeometry relative="1" as="geometry" />
        </mxCell>
        <mxCell id="jHsHHIUab3S1Bw9RC4OD-9" value="提示去主机操作" style="whiteSpace=wrap;html=1;shadow=0;strokeWidth=1;spacing=6;spacingTop=-4;" vertex="1" parent="WIyWlLk6GJQsqaUBKTNV-1">
          <mxGeometry x="670" y="624" width="120" height="60" as="geometry" />
        </mxCell>
        <mxCell id="jHsHHIUab3S1Bw9RC4OD-54" value="" style="edgeStyle=orthogonalEdgeStyle;rounded=0;orthogonalLoop=1;jettySize=auto;html=1;" edge="1" parent="WIyWlLk6GJQsqaUBKTNV-1" source="jHsHHIUab3S1Bw9RC4OD-51" target="jHsHHIUab3S1Bw9RC4OD-53">
          <mxGeometry relative="1" as="geometry" />
        </mxCell>
        <mxCell id="jHsHHIUab3S1Bw9RC4OD-51" value="超时" style="whiteSpace=wrap;html=1;" vertex="1" parent="WIyWlLk6GJQsqaUBKTNV-1">
          <mxGeometry x="40" y="480" width="120" height="60" as="geometry" />
        </mxCell>
        <mxCell id="jHsHHIUab3S1Bw9RC4OD-56" value="" style="edgeStyle=orthogonalEdgeStyle;rounded=0;orthogonalLoop=1;jettySize=auto;html=1;" edge="1" parent="WIyWlLk6GJQsqaUBKTNV-1" source="jHsHHIUab3S1Bw9RC4OD-53">
          <mxGeometry relative="1" as="geometry">
            <mxPoint x="100" y="750" as="targetPoint" />
          </mxGeometry>
        </mxCell>
        <mxCell id="jHsHHIUab3S1Bw9RC4OD-75" value="" style="edgeStyle=orthogonalEdgeStyle;rounded=0;orthogonalLoop=1;jettySize=auto;html=1;" edge="1" parent="WIyWlLk6GJQsqaUBKTNV-1" source="jHsHHIUab3S1Bw9RC4OD-53" target="jHsHHIUab3S1Bw9RC4OD-74">
          <mxGeometry relative="1" as="geometry" />
        </mxCell>
        <mxCell id="jHsHHIUab3S1Bw9RC4OD-53" value="取消超时的请求" style="whiteSpace=wrap;html=1;" vertex="1" parent="WIyWlLk6GJQsqaUBKTNV-1">
          <mxGeometry x="40" y="610" width="120" height="60" as="geometry" />
        </mxCell>
        <mxCell id="jHsHHIUab3S1Bw9RC4OD-72" value="" style="edgeStyle=orthogonalEdgeStyle;rounded=0;orthogonalLoop=1;jettySize=auto;html=1;exitX=0.25;exitY=1;exitDx=0;exitDy=0;" edge="1" parent="WIyWlLk6GJQsqaUBKTNV-1" source="jHsHHIUab3S1Bw9RC4OD-66" target="jHsHHIUab3S1Bw9RC4OD-71">
          <mxGeometry relative="1" as="geometry">
            <mxPoint x="340" y="280" as="sourcePoint" />
          </mxGeometry>
        </mxCell>
        <mxCell id="jHsHHIUab3S1Bw9RC4OD-122" style="edgeStyle=orthogonalEdgeStyle;rounded=0;orthogonalLoop=1;jettySize=auto;html=1;exitX=0.75;exitY=1;exitDx=0;exitDy=0;" edge="1" parent="WIyWlLk6GJQsqaUBKTNV-1" source="jHsHHIUab3S1Bw9RC4OD-66" target="WIyWlLk6GJQsqaUBKTNV-6">
          <mxGeometry relative="1" as="geometry" />
        </mxCell>
        <mxCell id="jHsHHIUab3S1Bw9RC4OD-66" value="点击确定按钮" style="whiteSpace=wrap;html=1;rounded=1;glass=0;strokeWidth=1;shadow=0;" vertex="1" parent="WIyWlLk6GJQsqaUBKTNV-1">
          <mxGeometry x="310" y="200" width="120" height="60" as="geometry" />
        </mxCell>
        <mxCell id="jHsHHIUab3S1Bw9RC4OD-73" style="edgeStyle=orthogonalEdgeStyle;rounded=0;orthogonalLoop=1;jettySize=auto;html=1;exitX=0.5;exitY=1;exitDx=0;exitDy=0;" edge="1" parent="WIyWlLk6GJQsqaUBKTNV-1" source="jHsHHIUab3S1Bw9RC4OD-71" target="jHsHHIUab3S1Bw9RC4OD-51">
          <mxGeometry relative="1" as="geometry">
            <mxPoint x="60" y="430" as="targetPoint" />
          </mxGeometry>
        </mxCell>
        <mxCell id="jHsHHIUab3S1Bw9RC4OD-71" value="弹出loading框" style="whiteSpace=wrap;html=1;rounded=1;glass=0;strokeWidth=1;shadow=0;" vertex="1" parent="WIyWlLk6GJQsqaUBKTNV-1">
          <mxGeometry x="40" y="350" width="120" height="60" as="geometry" />
        </mxCell>
        <mxCell id="jHsHHIUab3S1Bw9RC4OD-78" value="" style="edgeStyle=orthogonalEdgeStyle;rounded=0;orthogonalLoop=1;jettySize=auto;html=1;" edge="1" parent="WIyWlLk6GJQsqaUBKTNV-1" source="jHsHHIUab3S1Bw9RC4OD-74" target="jHsHHIUab3S1Bw9RC4OD-77">
          <mxGeometry relative="1" as="geometry" />
        </mxCell>
        <mxCell id="jHsHHIUab3S1Bw9RC4OD-105" value="no" style="edgeLabel;html=1;align=center;verticalAlign=middle;resizable=0;points=[];" vertex="1" connectable="0" parent="jHsHHIUab3S1Bw9RC4OD-78">
          <mxGeometry x="-0.3417" y="6" relative="1" as="geometry">
            <mxPoint as="offset" />
          </mxGeometry>
        </mxCell>
        <mxCell id="jHsHHIUab3S1Bw9RC4OD-93" value="" style="edgeStyle=orthogonalEdgeStyle;rounded=0;orthogonalLoop=1;jettySize=auto;html=1;entryX=0.5;entryY=0;entryDx=0;entryDy=0;exitX=1;exitY=0.5;exitDx=0;exitDy=0;" edge="1" parent="WIyWlLk6GJQsqaUBKTNV-1" source="jHsHHIUab3S1Bw9RC4OD-74" target="jHsHHIUab3S1Bw9RC4OD-92">
          <mxGeometry relative="1" as="geometry" />
        </mxCell>
        <mxCell id="jHsHHIUab3S1Bw9RC4OD-95" value="yes" style="edgeLabel;html=1;align=center;verticalAlign=middle;resizable=0;points=[];" vertex="1" connectable="0" parent="jHsHHIUab3S1Bw9RC4OD-93">
          <mxGeometry x="0.2497" y="2" relative="1" as="geometry">
            <mxPoint as="offset" />
          </mxGeometry>
        </mxCell>
        <mxCell id="jHsHHIUab3S1Bw9RC4OD-74" value="是否member_pay网络异常" style="rhombus;whiteSpace=wrap;html=1;" vertex="1" parent="WIyWlLk6GJQsqaUBKTNV-1">
          <mxGeometry x="60" y="740" width="80" height="80" as="geometry" />
        </mxCell>
        <mxCell id="jHsHHIUab3S1Bw9RC4OD-77" value="结束" style="ellipse;whiteSpace=wrap;html=1;" vertex="1" parent="WIyWlLk6GJQsqaUBKTNV-1">
          <mxGeometry x="60" y="1010" width="80" height="80" as="geometry" />
        </mxCell>
        <mxCell id="jHsHHIUab3S1Bw9RC4OD-121" style="edgeStyle=orthogonalEdgeStyle;rounded=0;orthogonalLoop=1;jettySize=auto;html=1;exitX=0.5;exitY=1;exitDx=0;exitDy=0;entryX=0.5;entryY=0;entryDx=0;entryDy=0;" edge="1" parent="WIyWlLk6GJQsqaUBKTNV-1" source="jHsHHIUab3S1Bw9RC4OD-79" target="jHsHHIUab3S1Bw9RC4OD-66">
          <mxGeometry relative="1" as="geometry" />
        </mxCell>
        <mxCell id="jHsHHIUab3S1Bw9RC4OD-79" value="开始" style="ellipse;whiteSpace=wrap;html=1;rounded=1;glass=0;strokeWidth=1;shadow=0;" vertex="1" parent="WIyWlLk6GJQsqaUBKTNV-1">
          <mxGeometry x="330" y="40" width="80" height="80" as="geometry" />
        </mxCell>
        <mxCell id="jHsHHIUab3S1Bw9RC4OD-108" style="edgeStyle=orthogonalEdgeStyle;rounded=0;orthogonalLoop=1;jettySize=auto;html=1;exitX=0.5;exitY=1;exitDx=0;exitDy=0;entryX=1;entryY=0.5;entryDx=0;entryDy=0;" edge="1" parent="WIyWlLk6GJQsqaUBKTNV-1" source="jHsHHIUab3S1Bw9RC4OD-92" target="jHsHHIUab3S1Bw9RC4OD-77">
          <mxGeometry relative="1" as="geometry" />
        </mxCell>
        <mxCell id="jHsHHIUab3S1Bw9RC4OD-92" value="记录bill需要刷新" style="whiteSpace=wrap;html=1;" vertex="1" parent="WIyWlLk6GJQsqaUBKTNV-1">
          <mxGeometry x="140" y="890" width="120" height="60" as="geometry" />
        </mxCell>
        <mxCell id="jHsHHIUab3S1Bw9RC4OD-101" value="" style="edgeStyle=orthogonalEdgeStyle;rounded=0;orthogonalLoop=1;jettySize=auto;html=1;" edge="1" parent="WIyWlLk6GJQsqaUBKTNV-1" source="jHsHHIUab3S1Bw9RC4OD-98" target="jHsHHIUab3S1Bw9RC4OD-100">
          <mxGeometry relative="1" as="geometry" />
        </mxCell>
        <mxCell id="jHsHHIUab3S1Bw9RC4OD-103" value="yes" style="edgeLabel;html=1;align=center;verticalAlign=middle;resizable=0;points=[];" vertex="1" connectable="0" parent="jHsHHIUab3S1Bw9RC4OD-101">
          <mxGeometry x="0.2222" relative="1" as="geometry">
            <mxPoint x="1" as="offset" />
          </mxGeometry>
        </mxCell>
        <mxCell id="jHsHHIUab3S1Bw9RC4OD-107" value="" style="edgeStyle=orthogonalEdgeStyle;rounded=0;orthogonalLoop=1;jettySize=auto;html=1;" edge="1" parent="WIyWlLk6GJQsqaUBKTNV-1" source="jHsHHIUab3S1Bw9RC4OD-100" target="jHsHHIUab3S1Bw9RC4OD-106">
          <mxGeometry relative="1" as="geometry" />
        </mxCell>
        <mxCell id="jHsHHIUab3S1Bw9RC4OD-100" value="中断操作，提示账单变更" style="whiteSpace=wrap;html=1;shadow=0;strokeWidth=1;spacing=6;spacingTop=-4;" vertex="1" parent="WIyWlLk6GJQsqaUBKTNV-1">
          <mxGeometry x="670" y="894" width="120" height="60" as="geometry" />
        </mxCell>
        <mxCell id="jHsHHIUab3S1Bw9RC4OD-106" value="结束" style="ellipse;whiteSpace=wrap;html=1;shadow=0;strokeWidth=1;spacing=6;spacingTop=-4;" vertex="1" parent="WIyWlLk6GJQsqaUBKTNV-1">
          <mxGeometry x="690" y="1004" width="80" height="80" as="geometry" />
        </mxCell>
        <mxCell id="jHsHHIUab3S1Bw9RC4OD-98" value="待付金额是否变化" style="rhombus;whiteSpace=wrap;html=1;shadow=0;strokeWidth=1;spacing=6;spacingTop=-4;" vertex="1" parent="WIyWlLk6GJQsqaUBKTNV-1">
          <mxGeometry x="530" y="884" width="80" height="80" as="geometry" />
        </mxCell>
        <mxCell id="jHsHHIUab3S1Bw9RC4OD-113" style="edgeStyle=orthogonalEdgeStyle;rounded=0;orthogonalLoop=1;jettySize=auto;html=1;exitX=0.5;exitY=1;exitDx=0;exitDy=0;" edge="1" parent="WIyWlLk6GJQsqaUBKTNV-1" source="jHsHHIUab3S1Bw9RC4OD-111" target="jHsHHIUab3S1Bw9RC4OD-98">
          <mxGeometry relative="1" as="geometry" />
        </mxCell>
        <mxCell id="jHsHHIUab3S1Bw9RC4OD-111" value="记录bill不需要刷新" style="whiteSpace=wrap;html=1;" vertex="1" parent="WIyWlLk6GJQsqaUBKTNV-1">
          <mxGeometry x="510" y="764" width="120" height="60" as="geometry" />
        </mxCell>
        <mxCell id="jHsHHIUab3S1Bw9RC4OD-126" value="" style="edgeStyle=orthogonalEdgeStyle;rounded=0;orthogonalLoop=1;jettySize=auto;html=1;entryX=1;entryY=0.5;entryDx=0;entryDy=0;" edge="1" parent="WIyWlLk6GJQsqaUBKTNV-1" source="jHsHHIUab3S1Bw9RC4OD-123" target="jHsHHIUab3S1Bw9RC4OD-92">
          <mxGeometry relative="1" as="geometry" />
        </mxCell>
        <mxCell id="jHsHHIUab3S1Bw9RC4OD-129" value="yes" style="edgeLabel;html=1;align=center;verticalAlign=middle;resizable=0;points=[];" vertex="1" connectable="0" parent="jHsHHIUab3S1Bw9RC4OD-126">
          <mxGeometry x="-0.2212" relative="1" as="geometry">
            <mxPoint as="offset" />
          </mxGeometry>
        </mxCell>
        <mxCell id="jHsHHIUab3S1Bw9RC4OD-130" style="edgeStyle=orthogonalEdgeStyle;rounded=0;orthogonalLoop=1;jettySize=auto;html=1;exitX=1;exitY=0.5;exitDx=0;exitDy=0;entryX=0;entryY=0.5;entryDx=0;entryDy=0;" edge="1" parent="WIyWlLk6GJQsqaUBKTNV-1" source="jHsHHIUab3S1Bw9RC4OD-123" target="jHsHHIUab3S1Bw9RC4OD-106">
          <mxGeometry relative="1" as="geometry" />
        </mxCell>
        <mxCell id="jHsHHIUab3S1Bw9RC4OD-131" value="no" style="edgeLabel;html=1;align=center;verticalAlign=middle;resizable=0;points=[];" vertex="1" connectable="0" parent="jHsHHIUab3S1Bw9RC4OD-130">
          <mxGeometry x="-0.1956" y="3" relative="1" as="geometry">
            <mxPoint as="offset" />
          </mxGeometry>
        </mxCell>
        <mxCell id="jHsHHIUab3S1Bw9RC4OD-123" value="是否网络报错" style="rhombus;whiteSpace=wrap;html=1;rounded=1;glass=0;strokeWidth=1;shadow=0;" vertex="1" parent="WIyWlLk6GJQsqaUBKTNV-1">
          <mxGeometry x="350" y="1004" width="80" height="80" as="geometry" />
        </mxCell>
      </root>
    </mxGraphModel>
  </diagram>
</mxfile>
